<svg width="41" height="37" viewBox="0 0 41 37" fill="none" xmlns="http://www.w3.org/2000/svg">
<g id="Highlight_05">
<path id="Vector" fill-rule="evenodd" clip-rule="evenodd" d="M2.73902 12.3797C3.74177 8.84672 4.24762 5.14783 4.71103 1.55966C4.80818 0.786824 4.26604 0.0692983 3.50225 0.0140957C2.73791 -0.0963095 2.03888 0.45604 1.94173 1.17367C1.49563 4.65144 1.01826 8.23928 0.052917 11.6066C-0.156456 12.3243 0.274567 13.0974 1.01602 13.3182C1.75692 13.5391 2.52909 13.0973 2.73902 12.3797Z" fill="#D1BB90"/>
<path id="Vector_2" fill-rule="evenodd" clip-rule="evenodd" d="M16.9557 23.0885C22.8243 17.4027 27.9375 10.9992 33.9635 5.4237C34.5263 4.92688 34.5565 4.04364 34.0311 3.49161C33.5051 2.93958 32.6207 2.8846 32.0579 3.43662C26.0146 9.01208 20.8847 15.4156 14.9988 21.1015C14.4494 21.6535 14.4416 22.5365 14.982 23.0885C15.5219 23.5854 16.4063 23.6406 16.9557 23.0885Z" fill="#D1BB90"/>
<path id="Vector_3" fill-rule="evenodd" clip-rule="evenodd" d="M39.5284 33.7434C36.1695 33.909 32.8106 34.0743 29.4511 34.2399C28.6817 34.2399 28.0877 34.9026 28.1251 35.6755C28.163 36.4483 28.818 37 29.5879 37C32.9524 36.8344 36.3163 36.6691 39.6802 36.5035C40.4496 36.4483 41.0398 35.7858 40.9979 35.0129C40.956 34.2953 40.2972 33.6882 39.5284 33.7434Z" fill="#D1BB90"/>
</g>
</svg>
