<svg width="41" height="37" viewBox="0 0 41 37" fill="none" xmlns="http://www.w3.org/2000/svg">
<g id="Highlight_05">
<path id="Vector" fill-rule="evenodd" clip-rule="evenodd" d="M38.261 24.6203C37.2583 28.1533 36.7524 31.8522 36.289 35.4403C36.1919 36.2132 36.734 36.9307 37.4978 36.9859C38.2621 37.0963 38.9611 36.544 39.0583 35.8263C39.5044 32.3486 39.9818 28.7607 40.9471 25.3934C41.1565 24.6757 40.7255 23.9026 39.984 23.6818C39.2431 23.4609 38.4709 23.9027 38.261 24.6203Z" fill="#D1BB90"/>
<path id="Vector_2" fill-rule="evenodd" clip-rule="evenodd" d="M24.0443 13.9115C18.1757 19.5973 13.0625 26.0008 7.03649 31.5763C6.47369 32.0731 6.44354 32.9564 6.96893 33.5084C7.49488 34.0604 8.37927 34.1154 8.94206 33.5634C14.9854 27.9879 20.1153 21.5844 26.0012 15.8985C26.5506 15.3465 26.5585 14.4635 26.018 13.9115C25.4781 13.4146 24.5937 13.3594 24.0443 13.9115Z" fill="#D1BB90"/>
<path id="Vector_3" fill-rule="evenodd" clip-rule="evenodd" d="M1.47162 3.25664C4.83053 3.09103 8.18943 2.92575 11.5489 2.76014C12.3183 2.76014 12.9123 2.09739 12.8749 1.32456C12.837 0.551722 12.182 2.21173e-05 11.4121 2.21509e-05C8.04762 0.16563 4.68368 0.330913 1.31975 0.496521C0.550376 0.551723 -0.0397772 1.21426 0.00209749 1.98709C0.0439722 2.70472 0.702802 3.31184 1.47162 3.25664Z" fill="#D1BB90"/>
</g>
</svg>
