<svg width="369" height="86" viewBox="0 0 369 86" fill="none" xmlns="http://www.w3.org/2000/svg">
<path d="M289.62 54.27L257.92 17.27H254V67.67H257.84V31.06L289.84 67.66C291.33 67.66 291.84 67.66 293.36 67.66V17.21H289.62V54.27Z" fill="#84977A"/>
<path d="M334 25.65L336.31 28L338.13 24.85C336.918 22.819 335.216 21.1241 333.18 19.92C328.498 17.0572 322.891 16.1149 317.53 17.29C314.168 17.8717 311.056 19.4418 308.59 21.8C304.04 26.25 303.59 34.21 308.29 38.67C309.94 40.2433 311.83 41.543 313.89 42.52C317.84 44.41 321.84 46.2 325.81 48.04C327.921 48.8901 329.882 50.0716 331.62 51.54C332.263 52.1101 332.783 52.8051 333.149 53.5828C333.515 54.3605 333.719 55.2045 333.748 56.0634C333.777 56.9223 333.63 57.7781 333.318 58.5787C333.005 59.3793 332.533 60.1079 331.93 60.72C330.489 62.2916 328.589 63.3693 326.5 63.8C319.79 65.25 313.95 63.65 309.14 58.67C308.6 58.1 308.09 57.5 307.51 56.85L305 59.6C306.628 62.0801 308.862 64.1039 311.49 65.48C315.714 67.7417 320.54 68.623 325.29 68C328.83 67.6647 332.2 66.3216 335 64.13C336.835 62.7306 338.271 60.8733 339.162 58.7444C340.054 56.6155 340.37 54.2897 340.08 52C339.897 50.4889 339.398 49.0333 338.616 47.7274C337.834 46.4216 336.786 45.2947 335.54 44.42C332.588 42.1815 329.387 40.2922 326 38.79C322.79 37.28 319.53 35.89 316.37 34.3C315.094 33.6451 313.935 32.7834 312.94 31.75C312.053 30.792 311.528 29.5541 311.457 28.2504C311.386 26.9466 311.772 25.6589 312.55 24.61C313.503 23.3208 314.809 22.3346 316.31 21.77C318.807 20.776 321.521 20.4553 324.18 20.84C327.939 21.1602 331.443 22.8762 334 25.65Z" fill="#84977A"/>
<path d="M166.6 18.26L166.21 17.26H156.65L178.96 68.26L202.39 17.3H198.13L181.84 52.78C181.58 52.28 181.41 51.98 181.27 51.67L174.07 35.29C171.58 29.62 169.07 24 166.6 18.26Z" fill="#84977A"/>
<path d="M74.1001 67.61H106V63.82H82.7401V17.32H74.1001V67.61Z" fill="#84977A"/>
<path d="M63.1501 21.12V17.32H31.3701V40.56H28.3701V44.37H31.3701V67.63H63.1301V63.78H40.0001V44.46H57.3701V40.56H40.0001V21.12H63.1501Z" fill="#84977A"/>
<path d="M148.71 21.12V17.32H116.94V40.56H113.94V44.37H116.94V67.63H148.7V63.78H125.6V44.46H142.94V40.56H125.61V21.12H148.71Z" fill="#84977A"/>
<path d="M243.23 21.12V17.32H211.45V40.56H208.45V44.37H211.45V67.63H243.22V63.78H220.12V44.46H237.46V40.56H220.13V21.12H243.23Z" fill="#84977A"/>
</svg>
