<svg width="750" height="786" viewBox="0 0 750 786" fill="none" xmlns="http://www.w3.org/2000/svg">
<path opacity="0.2" d="M233.657 0L263.857 18.1304L294.058 0H299.161L266.413 19.6544L395.164 96.9581L523.924 19.6544L491.176 0H496.271L525.158 17.3421V0H527.785V17.3421L556.672 0H561.776L529.028 19.6544L658.461 97.361C658.654 97.4775 658.814 97.642 658.924 97.8385C659.035 98.0349 659.092 98.2567 659.092 98.4821V253.825L750 199.25V202.316L660.335 256.138L750 309.968V313.034L657.779 257.67L529.028 334.965L658.461 412.672L750 467.624V470.689L659.092 416.114V569.127L750 514.561V517.627L659.092 572.193V726.783L750 672.217V675.273L660.335 729.104L750 782.935V786L657.07 730.234L525.762 651.406L525.657 651.318C525.609 651.286 525.562 651.251 525.517 651.213C525.471 651.165 525.43 651.112 525.395 651.056C525.366 651.026 525.34 650.994 525.316 650.959V650.889C525.282 650.819 525.252 650.745 525.228 650.67C525.224 650.641 525.224 650.612 525.228 650.583C525.228 650.504 525.228 650.425 525.228 650.355C525.228 650.285 525.228 650.355 525.228 650.294V494.942L395.917 572.578H395.865C395.793 572.622 395.717 572.657 395.637 572.683H395.55C395.445 572.693 395.339 572.693 395.234 572.683C395.13 572.692 395.024 572.692 394.919 572.683H394.84C394.761 572.657 394.684 572.622 394.613 572.578H394.56L263.253 493.751C263.059 493.633 262.898 493.467 262.786 493.27C262.674 493.072 262.615 492.848 262.614 492.621V335.719L132.62 257.679L2.62616 335.719V492.629C2.62616 492.978 2.48779 493.312 2.24158 493.558C1.9953 493.805 1.66132 493.943 1.31311 493.943C0.964844 493.943 0.630859 493.805 0.384583 493.558C0.138367 493.312 0 492.978 0 492.629V334.974C0.000427246 334.747 0.0594482 334.523 0.171387 334.325C0.283325 334.127 0.444397 333.962 0.639038 333.844L131.946 255.016C132.152 254.896 132.386 254.833 132.625 254.833C132.863 254.833 133.097 254.896 133.303 255.016L264.61 333.844C264.672 333.883 264.731 333.927 264.785 333.976C264.785 334.028 264.873 334.072 264.917 334.133L265.013 334.3C265.014 334.32 265.014 334.341 265.013 334.361C265.013 334.361 265.013 334.466 265.065 334.519V334.606V334.738C265.065 334.738 265.065 334.825 265.065 334.869V491.876L393.746 569.127V413.793C393.747 413.567 393.807 413.345 393.919 413.148C394.031 412.952 394.191 412.788 394.385 412.672L523.924 334.965L394.455 257.267L263.148 178.44C262.954 178.322 262.793 178.157 262.681 177.959C262.569 177.761 262.51 177.537 262.509 177.31V21.9754L133.198 99.612C133.05 99.7012 132.886 99.7604 132.716 99.7862C132.545 99.8121 132.371 99.804 132.204 99.7625C132.036 99.721 131.879 99.6469 131.74 99.5445C131.601 99.442 131.484 99.3131 131.395 99.1653C131.305 99.0175 131.246 98.8536 131.22 98.6829C131.195 98.5122 131.203 98.3381 131.244 98.1706C131.286 98.003 131.36 97.8453 131.462 97.7064C131.565 97.5674 131.693 97.4501 131.841 97.361L261.31 19.6544L228.553 0H233.657ZM656.466 99.2266L527.785 21.9754V176.574L656.466 253.825V99.2266ZM656.466 416.114L529.028 492.621L656.466 569.127V416.114ZM656.466 726.783V573.769L529.028 650.276L656.466 726.783ZM527.785 647.955L655.231 571.448L527.785 494.942V647.955ZM527.785 490.3L655.231 413.793L527.785 337.286V490.3ZM396.477 414.538V569.127L525.158 491.876V337.286L396.477 414.538ZM526.471 333.441L655.231 256.138L526.471 178.843L397.72 256.138L526.471 333.441ZM396.477 253.825L525.158 176.574V21.9754L396.477 99.2266V253.825ZM265.17 176.574L393.851 253.825V99.2266L265.17 21.9754V176.574Z" fill="#A29585"/>
</svg>
